<mxfile host="app.diagrams.net" modified="2024-04-20T09:57:26.056Z" agent="Mozilla/5.0 (Windows NT 10.0; Win64; x64) AppleWebKit/537.36 (KHTML, like Gecko) Chrome/124.0.0.0 Safari/537.36" etag="rSnRHCRrEnSmXH4imjgM" version="24.2.7" type="github">
  <diagram name="Page-1" id="4S30v0AkS0Q1B7R6wPVB">
    <mxGraphModel dx="1290" dy="596" grid="1" gridSize="10" guides="1" tooltips="1" connect="1" arrows="1" fold="1" page="1" pageScale="1" pageWidth="850" pageHeight="1100" math="0" shadow="0">
      <root>
        <mxCell id="0" />
        <mxCell id="1" parent="0" />
        <mxCell id="w4ZhxxLI5fw-waTCUkor-7" style="edgeStyle=orthogonalEdgeStyle;rounded=0;orthogonalLoop=1;jettySize=auto;html=1;entryX=0;entryY=0.5;entryDx=0;entryDy=0;" edge="1" parent="1" source="w4ZhxxLI5fw-waTCUkor-1" target="w4ZhxxLI5fw-waTCUkor-3">
          <mxGeometry relative="1" as="geometry" />
        </mxCell>
        <mxCell id="w4ZhxxLI5fw-waTCUkor-8" style="edgeStyle=orthogonalEdgeStyle;rounded=0;orthogonalLoop=1;jettySize=auto;html=1;entryX=0;entryY=0.5;entryDx=0;entryDy=0;" edge="1" parent="1" source="w4ZhxxLI5fw-waTCUkor-1" target="w4ZhxxLI5fw-waTCUkor-4">
          <mxGeometry relative="1" as="geometry" />
        </mxCell>
        <mxCell id="w4ZhxxLI5fw-waTCUkor-1" value="Authentication" style="rounded=0;whiteSpace=wrap;html=1;" vertex="1" parent="1">
          <mxGeometry x="50" y="110" width="120" height="60" as="geometry" />
        </mxCell>
        <mxCell id="w4ZhxxLI5fw-waTCUkor-9" style="edgeStyle=orthogonalEdgeStyle;rounded=0;orthogonalLoop=1;jettySize=auto;html=1;exitX=1;exitY=0.5;exitDx=0;exitDy=0;entryX=0;entryY=0.5;entryDx=0;entryDy=0;" edge="1" parent="1" source="w4ZhxxLI5fw-waTCUkor-3" target="w4ZhxxLI5fw-waTCUkor-5">
          <mxGeometry relative="1" as="geometry" />
        </mxCell>
        <mxCell id="w4ZhxxLI5fw-waTCUkor-3" value="with social media" style="rounded=0;whiteSpace=wrap;html=1;" vertex="1" parent="1">
          <mxGeometry x="220" y="20" width="120" height="60" as="geometry" />
        </mxCell>
        <mxCell id="w4ZhxxLI5fw-waTCUkor-6" style="edgeStyle=orthogonalEdgeStyle;rounded=0;orthogonalLoop=1;jettySize=auto;html=1;entryX=0;entryY=0.5;entryDx=0;entryDy=0;" edge="1" parent="1" source="w4ZhxxLI5fw-waTCUkor-4" target="w4ZhxxLI5fw-waTCUkor-5">
          <mxGeometry relative="1" as="geometry" />
        </mxCell>
        <mxCell id="w4ZhxxLI5fw-waTCUkor-11" value="" style="edgeStyle=orthogonalEdgeStyle;rounded=0;orthogonalLoop=1;jettySize=auto;html=1;" edge="1" parent="1" source="w4ZhxxLI5fw-waTCUkor-4" target="w4ZhxxLI5fw-waTCUkor-10">
          <mxGeometry relative="1" as="geometry" />
        </mxCell>
        <mxCell id="w4ZhxxLI5fw-waTCUkor-4" value="password based" style="rounded=0;whiteSpace=wrap;html=1;" vertex="1" parent="1">
          <mxGeometry x="220" y="210" width="120" height="60" as="geometry" />
        </mxCell>
        <mxCell id="w4ZhxxLI5fw-waTCUkor-5" value="auth0" style="rounded=0;whiteSpace=wrap;html=1;" vertex="1" parent="1">
          <mxGeometry x="440" y="20" width="120" height="60" as="geometry" />
        </mxCell>
        <mxCell id="w4ZhxxLI5fw-waTCUkor-10" value="" style="whiteSpace=wrap;html=1;rounded=0;" vertex="1" parent="1">
          <mxGeometry x="440" y="140" width="120" height="60" as="geometry" />
        </mxCell>
      </root>
    </mxGraphModel>
  </diagram>
</mxfile>
